# xmcd CD database file
#
# Track frame offsets:
#	150
#	14722
#	30075
#	40227
#	63437
#	75525
#	89680
#	103790
#	114875
#	131407
#	147330
#	157512
#
# Disc length: 2343 seconds
#
# Revision: 1
# Processed by: cddbd v1.5.2PL0 Copyright (c) Steve Scherf et al.
# Submitted via: CDex 1.51
#
DISCID=8d09250c
DTITLE=VA - The Jazz Beatles Collection - CD 2
DYEAR=1991
DGENRE=Jazz
TTITLE0=L.A. Workshop - Nowhere Man
TTITLE1=Sara Vaughan - Michelle
TTITLE2=Tony Bennett - Give Me Love
TTITLE3=L.A. Workshop - Anna (Go To Him)
TTITLE4=Ella Fitzgerald - Can't Buy Me Love
TTITLE5=Oscar Peterson - Eleanor Rigby
TTITLE6=Tony Bennett - My Love
TTITLE7=Luiz Bonfa - Yesterday
TTITLE8=Ella Fitzgerald - A Hard Days Night (Live)
TTITLE9=William Galison - Julia
TTITLE10=Sara Vaughan - Yesterday
TTITLE11=L.A. Workshop - If I Fell
EXTD=YEAR: 1991
EXTT0=
EXTT1=
EXTT2=
EXTT3=
EXTT4=
EXTT5=
EXTT6=
EXTT7=
EXTT8=
EXTT9=
EXTT10=
EXTT11=
PLAYORDER=
